<?xml version="1.0" encoding="utf-8"?>
<svg id="master-artboard" viewBox="0 0 2000 2000" version="1.1" xmlns="http://www.w3.org/2000/svg" x="0px" y="0px" style="enable-background:new 0 0 2000 2000;" width="2000px" height="2000px"><defs><linearGradient id="gradient-0" gradientUnits="userSpaceOnUse" x1="1000" y1="0" x2="1000" y2="2000">
                <stop offset="0" style="stop-color: #ffffff"/>
                <stop offset="1" style="stop-color: #cccccc"/>
              </linearGradient><path d="M 0 0 H 1400 V 980 H 0 V 0 Z" id="path-2"/><path d="M 0 0 H 1400 V 980 H 0 V 0 Z" id="path-4"/></defs><rect id="ee-background" x="0" y="0" width="2000" height="2000" style="fill: rgb(246, 192, 189); fill-opacity: 1; pointer-events: none;"/>

<path d="M 0 0 H 2000 V 2000 H 0 V 0 Z" class="st0" style="fill: rgb(236, 191, 245); fill-opacity: 1;" transform="matrix(1, 0, 0, 1, 0, 0)"/><path class="st1" d="M322.6,1447c-8.4,17.8-13.2,36.3-12.4,56.3c0.6,16.9,3.7,34.5,9.8,50.3c13.8,35.8,35.7,66.5,70.3,84.8&#10;&#9;&#9;&#9;c68.3,36.1,149.9,27,224.1,22.9c39.1-2.2,78.4-3.7,117.4,0.8c20.9,3.3,41.3,8.5,61,16.2c30.4,13.7,58.7,31.6,89.1,45.4&#10;&#9;&#9;&#9;c19.5,8.9,39.4,16.9,60.4,21.4c21.3,4.6,43.4,7.1,65.2,7c79.4-0.2,154.1-28.7,228-54.1c38.8-13.3,78.1-25.4,118.7-31.6&#10;&#9;&#9;&#9;c21.6-2.5,43.3-3,64.9-0.8c16.8,2.8,33,7.5,48.9,13.8c27.5,12.2,54.2,26.8,83.1,35.2c30.1,8.8,65.6,11.5,95.7,1.1&#10;&#9;&#9;&#9;c30.7-10.6,58-31.9,71.3-62.2c7.4-16.9,11.2-31.9,13.2-50.3c1.6-15-0.1-29.7-2.5-44.6c-4-25.4-14.7-50.2-28.6-71.7&#10;&#9;&#9;&#9;c-14.7-22.6-32.7-43.3-53.9-60c-43.1-34.1-93.4-57.7-147.4-68.8c-64.1-13.1-129.5-11.6-194.4-6.5c-63.5,5-126.8,10.6-190.4,13&#10;&#9;&#9;&#9;c-127,4.7-254.1,1.8-381.1,0.5c-64-0.6-128-0.9-191.9,0.4c-34.3,0.7-68.6,1.1-102.6,5.8c-33.1,4.6-64,17.4-89.1,39.8&#10;&#9;&#9;&#9;C338.3,1420.8,328.6,1433.4,322.6,1447z" style="opacity: 0.26; fill: rgb(234, 114, 108);" transform="matrix(1, 0, 0, 1, 0, 0)"/><path class="st1" d="M443.2,1500.2c2.8,7.8,6.2,15.4,10,22.9c11,21.5,26.9,41.7,45.7,56.9c23.3,18.9,49.3,32.7,78.7,39.6&#10;&#9;&#9;&#9;c28.4,6.7,57.9,8.1,87,7.4c54.9-1.4,110.3-4.6,164.8-11c57.8-6.8,114.3-17.7,169.1-37.8c54-19.8,106.8-44.2,163.9-53.1&#10;&#9;&#9;&#9;c68-7.8,136.3,3.1,204.5,1.8c37.2-0.7,75.5-4.8,110.9-16.7c23.9-8.1,45.3-18.2,60.2-39.4c7.2-10.3,11.4-25.2,10.3-37.7&#10;&#9;&#9;&#9;c-1.4-17-7.7-31.5-19.4-44c-9.3-9.9-23.3-18.1-36.6-21.1c-16.8-3.8-32.9-2.6-49.5,1c-10,2.1-19.7,5.1-29.6,7.3&#10;&#9;&#9;&#9;c-8.7,1.9-17.4,3.5-26.2,4.8c-88.7,10.6-177.5-5.6-266.1-9.9c-93.5-4.5-186.7,6.6-280,9.8c-51.2,1.8-102.2,0.5-153-6&#10;&#9;&#9;&#9;c-42.8-6-86-13.7-129.3-11.9c-48.9,2.1-116.4,14.3-132.7,68.7C418.5,1455.9,425.9,1483,443.2,1500.2z" style="opacity: 0.26; fill: rgb(234, 114, 108);" transform="matrix(1, 0, 0, 1, 0, 0)"/><g transform="matrix(1, 0, 0, 1, 0, 0)">
				<g>
					<linearGradient id="SVGID_1_" gradientUnits="userSpaceOnUse" x1="1513.3135" y1="1215.1512" x2="1517.8137" y2="1166.1938">
						<stop offset="0" style="stop-color:#F3F2FA"/>
						<stop offset="1" style="stop-color:#DBDAE5"/>
					</linearGradient>
					<path d="M 1497.9000244140625 1137.5 L 1481.4000244140625 1137.5 L 1515 1441.5 L 1531.5999755859375 1441.5 Z" class="st2" style="fill: url('#SVGID_1_');"/>
					<linearGradient id="SVGID_2_" gradientUnits="userSpaceOnUse" x1="1373.771" y1="1204.0992" x2="1368.8456" y2="1155.2798">
						<stop offset="0" style="stop-color:#F3F2FA"/>
						<stop offset="1" style="stop-color:#DBDAE5"/>
					</linearGradient>
					<path d="M 1391 1137.5 L 1357.300048828125 1441.5 L 1373.800048828125 1441.5 L 1407.5 1137.5 Z" class="st3" style="fill: url('#SVGID_2_');"/>
					<path class="st4" d="M1545.3,1111.9v-11.1c0,0-2.8-3.3-6.4-3.8c-15.2-17.2-55.8-29.4-103.4-29.4c-60.7,0-109.8,19.9-109.8,44.4&#10;&#9;&#9;&#9;&#9;&#9;&#9;s49.2,44.4,109.8,44.4S1545.3,1136.4,1545.3,1111.9z" style="fill: rgb(61, 42, 81);"/>
					<path d="M 1545.300003 1100.800049 A 109.800003 44.400002 0 0 1 1435.5 1145.20005 A 109.800003 44.400002 0 0 1 1325.699997 1100.800049 A 109.800003 44.400002 0 0 1 1435.5 1056.400047 A 109.800003 44.400002 0 0 1 1545.300003 1100.800049 Z" class="st5" style="fill: rgb(80, 57, 101);"/>
					<path d="M 1382.400024 1254.099976 H 1503.200027 V 1271.699976 H 1382.400024 V 1254.099976 Z" class="st6" style="fill: rgb(243, 242, 250);"/>
				</g>
				<linearGradient id="SVGID_3_" gradientUnits="userSpaceOnUse" x1="1185.3171" y1="833.6635" x2="1168.0028" y2="902.0058">
					<stop offset="0" style="stop-color:#F9948A"/>
					<stop offset="1" style="stop-color:#EA726C"/>
				</linearGradient>
				<path class="st7" d="M1159.7,784.3c-1.4-1.1-56.9-23.2-62.9-14.9s12.2,28.9,20.3,32.4c8,3.5,39.6,26.8,56.9,25.2&#10;&#9;&#9;&#9;&#9;&#9;c0,0,56,73.6,81.4,106.2l21.1-43.7c-22-20.3-82.8-76-84.5-77.6c-3-2.7-9.7-20.7-21.7-34.8s-12.4-27.5-16.3-25.7&#10;&#9;&#9;&#9;&#9;&#9;C1150,753.1,1161,785.4,1159.7,784.3z" style="fill: url('#SVGID_3_');"/>
				<linearGradient id="SVGID_4_" gradientUnits="userSpaceOnUse" x1="1242.8052" y1="1377.3199" x2="1204.0068" y2="1316.8466">
					<stop offset="0" style="stop-color:#F9948A"/>
					<stop offset="1" style="stop-color:#EA726C"/>
				</linearGradient>
				<path class="st8" d="M1304.6,1262.8l-47.4-20.9c-8.5,64.4-17.5,123.5-23,128.5c0,0-18.8,39.6-44.8,47.6&#10;&#9;&#9;&#9;&#9;&#9;c-26,8-40.8,23.6-36.5,30.2c4.3,6.5,73.3-10.3,120.4-22.9c47.1-12.6-5.3-50.4,1-75.4C1277.1,1338.8,1290.6,1302.7,1304.6,1262.8&#10;&#9;&#9;&#9;&#9;&#9;z" style="fill: url('#SVGID_4_');"/>
				<linearGradient id="SVGID_5_" gradientUnits="userSpaceOnUse" x1="1318.2706" y1="1443.4415" x2="1317.5479" y2="1333.2839">
					<stop offset="0" style="stop-color:#F9948A"/>
					<stop offset="1" style="stop-color:#EA726C"/>
				</linearGradient>
				<path class="st9" d="M1273.6,1414.9c-25.8,6-39.1,27-22.2,29.4c16.8,2.4,135.9,10.5,140.7-10c2.6-11.2-5.3-25.9-13-36.8&#10;&#9;&#9;&#9;&#9;&#9;c-8.4-11.9-13.8-25.7-16-40.1c-4-25.6-8.4-49.1-12.9-70.5l-62.3,8.3c22.2,48,41.6,89.5,43.5,97&#10;&#9;&#9;&#9;&#9;&#9;C1336.2,1410.9,1299.4,1408.9,1273.6,1414.9z" style="fill: url('#SVGID_5_');"/>
				<linearGradient id="SVGID_6_" gradientUnits="userSpaceOnUse" x1="1346.8945" y1="1120.8732" x2="1429.371" y2="1026.0468">
					<stop offset="0" style="stop-color:#F3F2FA"/>
					<stop offset="1" style="stop-color:#DBDAE5"/>
				</linearGradient>
				<path class="st10" d="M1329.6,1010.5c-13.2,5.2-34.5,9.5-56.2,13.1c-11.3,1.9-21.6,3.6-30.6,6.5c-7.2,0.9-14.2,4.7-20.3,8.2&#10;&#9;&#9;&#9;&#9;&#9;c-0.5,0.3-0.8,0.6-1.1,1c-0.7,0.6-1.4,1.4-1.9,2.4c-15.8,28.8-17.1,62.5-12.9,94.5c4.5,34.2,7.8,65.4,7.5,100.2&#10;&#9;&#9;&#9;&#9;&#9;c-0.1,17.8,3.7,38.2-4.3,54.2c-3.3,6.5,2.1,14.6,9.7,12.6c20.2-5.3,40.8,5.4,60.1,9.8c10.8,2.4,22,3.5,32.9,1.1&#10;&#9;&#9;&#9;&#9;&#9;c11.7-2.5,21.9-9.4,33.8-11c6-0.8,12.2-0.7,18.3-0.5c5.8,0.1,11.9,0.7,17.6-0.9c13.6-3.8,16.1-17.8,10.1-29.1&#10;&#9;&#9;&#9;&#9;&#9;c-2.6-5-6.6-9.3-9.9-13.8c-3.6-4.8-7.1-9.6-10.5-14.4c-7.2-10.2-17.4-19.1-20.6-31.2c-6.1-23.2-10.4-45.4-20.9-68.7&#10;&#9;&#9;&#9;&#9;&#9;c202.2-13.9,186.7-41.2,194.7-87.2c7-40.1-38.6-101.2-36.2-105.4c0.5-0.9,1.2-6.8,2-16l-135.4,12.3&#10;&#9;&#9;&#9;&#9;&#9;C1358.1,971.8,1351.1,1002.1,1329.6,1010.5z M1378.8,1284.4c-0.1,0.1-0.1,0.1-0.2,0.2C1378.9,1283.7,1379,1284.3,1378.8,1284.4z&#10;&#9;&#9;&#9;&#9;&#9;" style="fill: url('#SVGID_6_');"/>
				<path class="st5" d="M1280.1,771.4c-7,13.5-3.7,29,7,39.4c8.3,8,21.1,12.7,27.2,22.8c3.9,6.4,3.4,14.3,8.9,19.9&#10;&#9;&#9;&#9;&#9;&#9;c5.6,5.8,14.2,7.6,21.8,9.2c8.4,1.8,17.1,2.6,25.2-0.9c7.2-3,12.5-8.7,16.9-15c9.2-13.5,15-30.3,17.5-46.3&#10;&#9;&#9;&#9;&#9;&#9;c2.4-14.8,4-32.8-8.6-43.7c-4.8-4.2-13.2-7.4-15.7-13.7c-1.6-3.9-1-8.4-0.8-12.5c0.2-4.3,0.2-8.6-0.6-12.9&#10;&#9;&#9;&#9;&#9;&#9;c-1.7-8.4-7.8-14.8-15.5-18.1c-9-3.8-18.9-2.8-28.2-0.6c-4.2,1-5.4,4.8-4.6,8c0,0.1-0.1,0.2-0.1,0.4c-1.1,6.9-8.7,9.3-14.2,12.2&#10;&#9;&#9;&#9;&#9;&#9;c-7,3.7-12.8,8.5-15.2,16.3c-1.6,5.2-1.2,10.8-3.3,15.6c-0.8-5.5-0.2-11.2,1.6-16.5c3.6-10.2,11.9-16.8,20.3-23.1&#10;&#9;&#9;&#9;&#9;&#9;c1.4-1,0-3.4-1.4-2.3c-9,6.7-17.8,13.7-21.6,24.7c-2.3,6.7-2.6,13.8-1.2,20.6c-0.3,0.3-0.5,0.6-0.8,0.9&#10;&#9;&#9;&#9;&#9;&#9;C1289.6,761,1283.5,764.7,1280.1,771.4z" style="fill: rgb(80, 57, 101);"/>
				<linearGradient id="SVGID_7_" gradientUnits="userSpaceOnUse" x1="1319.5077" y1="758.2945" x2="1457.6095" y2="758.2945">
					<stop offset="0" style="stop-color:#F9948A"/>
					<stop offset="1" style="stop-color:#EA726C"/>
				</linearGradient>
				<path class="st11" d="M1354.2,762c-3.5,1.1-6.8,2-10,2.9c-10.2,2-18.1,5-21.7,8c-10.5,8.7,9.6,45.2,9.6,45.2s33.3,0.7,44.3-1.6&#10;&#9;&#9;&#9;&#9;&#9;c10.9-2.3,17.7-2.9,33.7-9.2c16-6.3,24.3-4.5,32.7-11.3c8.3-6.8,11.5-7.2,13.5-14.4s3.4-12.8-9.2-18&#10;&#9;&#9;&#9;&#9;&#9;c-12.6-5.2-21.4-5.3-27.5-5.8c-1-0.1-2.5-0.1-4.2,0l9.3-8.3c-4.7-0.9-8.5-1.6-10.9-2.4c-13.8-4.2-8.8-48.5-8.8-48.5l-26.6,7&#10;&#9;&#9;&#9;&#9;&#9;l-15.2,14.9C1363,720.4,1377.6,754.8,1354.2,762z" style="fill: url('#SVGID_7_');"/>
				<path class="st5" d="M1273.4,1425.3c30-8,19.6-26.3,9.8-44.9c-14.7,11-46.5,33.4-69.6,39.2c-13.1,3.3-23.2,2.6-30.5,0.7&#10;&#9;&#9;&#9;&#9;&#9;c-22,8.4-34,22-30.1,28C1157.3,1454.7,1226.2,1437.9,1273.4,1425.3z" style="fill: rgb(80, 57, 101);"/>
				<path class="st5" d="M1392,1434.3c2.4-10.3-4-23.4-11.1-34c-4.9,7.2-17.5,20.8-43.6,24.3c-36,4.8-50.5,6-52.9-4.8&#10;&#9;&#9;&#9;&#9;&#9;c-0.4-1.9-1.2-4.2-2.3-6.7c-2.9,0.5-5.8,1-8.6,1.7c-25.8,6-39.1,27-22.2,29.4C1268.2,1446.6,1387.2,1454.7,1392,1434.3z" style="fill: rgb(80, 57, 101);"/>
				<linearGradient id="SVGID_8_" gradientUnits="userSpaceOnUse" x1="1381.5227" y1="689.647" x2="1355.2682" y2="646.9474">
					<stop offset="0" style="stop-color:#F9948A"/>
					<stop offset="1" style="stop-color:#EA726C"/>
				</linearGradient>
				<path class="st12" d="M1342.3,729.8c32.6-2,74.2-19,83.9-59.7c3.4-14.4,0.2-29-5.5-41.9c-14.1-32-49.1-50.1-83-41.2&#10;&#9;&#9;&#9;&#9;&#9;c-14.6,3.8-27,12.2-29.7,29.3C1301.1,661.9,1309.7,731.8,1342.3,729.8z" style="fill: url('#SVGID_8_');"/>
				<linearGradient id="SVGID_9_" gradientUnits="userSpaceOnUse" x1="1425.4573" y1="1018.6945" x2="1440.6533" y2="935.6808">
					<stop offset="0" style="stop-color:#BEB2D6"/>
					<stop offset="1" style="stop-color:#8877AF"/>
				</linearGradient>
				<path class="st13" d="M1333.5,995.5c6.6-4.1,14.3,0.9,20.3,4c7.5,3.9,15.4,6.9,23.8,8.6c8.3,1.7,16.9,2.3,25.4,1.8&#10;&#9;&#9;&#9;&#9;&#9;c8.7-0.5,17.6-2,26.4-1c8,0.9,14.6,5,21.3,9.2c7,4.3,14.2,8.2,22.3,10c14.8,3.4,33.6,1.2,45.1,13c4.6,4.8,13.3-0.1,11.3-6.6&#10;&#9;&#9;&#9;&#9;&#9;c-9.7-31.6-23.5-61.8-41.3-89.7c-0.2-3.2-2.4-6.1-6.5-6c-33.8,1-67.7-4.6-101.4-1.2c-14.5,1.4-30,3.3-39,16&#10;&#9;&#9;&#9;&#9;&#9;c-6.8,9.5-7.4,22.8-15.7,31.2C1320,990.2,1326.8,999.5,1333.5,995.5z" style="fill: url('#SVGID_9_');"/>
				<linearGradient id="SVGID_10_" gradientUnits="userSpaceOnUse" x1="1364.8943" y1="864.6938" x2="1408.3425" y2="925.1124">
					<stop offset="0" style="stop-color:#BEB2D6"/>
					<stop offset="1" style="stop-color:#8877AF"/>
				</linearGradient>
				<path class="st14" d="M1214.1,897.7c-0.1,5.5,3,9.2,7.1,11.8c0.3,0.8,0.7,1.5,1.3,2.1c5.8,21.4,13.9,36.6,25.4,37.3&#10;&#9;&#9;&#9;&#9;&#9;c40.3,2.4,78.1-97.3,78.1-97.3s-3,55.3,16.2,67.3c7,4.3,11.6,15.8,13.2,29.4c49.7,5.6,113.3,3.6,133.7,2.8&#10;&#9;&#9;&#9;&#9;&#9;c2.6-11.8,9.1-122.4,3.9-158.3c-2.8-19-19.7-29.4-37.5-35.6c-58.4,46.4-114.6,25-133,15.8c-8.1,4.7-14.8,12-20,25.8&#10;&#9;&#9;&#9;&#9;&#9;c-7.9,21.1-24.6,53.2-32.9,68.9c-3-4-8.2-5.6-12.8-1.7c-3.4,2.9-5.5,7.9-5.6,12.7c-2.2-1.9-5-2.9-8-2.4c-7,1.1-10.3,8.3-9,14.8&#10;&#9;&#9;&#9;&#9;&#9;c-1.6-1.2-3.5-2.2-4.9-2.7C1222.3,885.6,1214.2,889.7,1214.1,897.7z" style="fill: url('#SVGID_10_');"/>
				<linearGradient id="SVGID_11_" gradientUnits="userSpaceOnUse" x1="1313.179" y1="934.6846" x2="1222.1586" y2="935.2544">
					<stop offset="0" style="stop-color:#F9948A"/>
					<stop offset="1" style="stop-color:#EA726C"/>
				</linearGradient>
				<path class="st15" d="M1303.1,950.6c4.4,1.4,59.3,6.3,108.5,7.5l-18.4-48.1c-35.4,6.2-78.4,14.2-93,18.9&#10;&#9;&#9;&#9;&#9;&#9;c-26.3,8.6-71.3,7.6-78.8,16.6C1213.8,954.7,1295.3,948.2,1303.1,950.6z" style="fill: url('#SVGID_11_');"/>
				<path class="st16" d="M1408.7,893.8c-7.1,0-17.3,1.9-21.5,8.4c-3.9,6.2-0.7,12.6,4.7,15.7c-1.1,2.3-1.4,5-0.8,8&#10;&#9;&#9;&#9;&#9;&#9;c1.1,5.2,5,8.3,9.7,9.8c-1.8,2.9-2.7,6.3-2,9.9c3,16.6,25.5,19.2,38,12.7c27-0.2,48.4-2.2,52.3-7.5&#10;&#9;&#9;&#9;&#9;&#9;c9.2-12.6,11.3-131.6,2.4-163.9c-0.9-3.2-2.5-6.7-4.5-9.3c-4.5-5.9-15.7-15.4-29.8-20c0,0-25.3,42-12.3,142.9&#10;&#9;&#9;&#9;&#9;&#9;c-4.7,0-9.5,0-14.2,0C1424.3,896.1,1416.5,893.7,1408.7,893.8z" style="fill: rgb(190, 178, 214);"/>
				<path class="st5" d="M1449.9,631.5c-6.5-22.8-25-40.7-46.7-49.3c-12.4-4.9-26.3-7.7-39.7-7.1c-14.7,0.7-28.6,5.4-41.6,12.3&#10;&#9;&#9;&#9;&#9;&#9;c-0.5,0.2-1.1,0.5-1.7,0.8c-0.1,0.1-0.3,0.2-0.4,0.3c0,0-0.1,0-0.1,0.1c-0.5,0.3-1,0.6-1.4,1c-17.7,12.9-28.3,34.4-26.6,56.5&#10;&#9;&#9;&#9;&#9;&#9;c0.2,2.8,1.9,6,5,6.5c14.1,2.5,27.5-1.3,41.6-1c4.2,0.1,8.5,0.6,12.4,2.1c2.5,9.5,5.9,19.4,14.2,25.3c7,5,19.5,6.5,26.8,12.2&#10;&#9;&#9;&#9;&#9;&#9;c2,8-1.8,17.7-4.2,24.8c-0.2,0.5-0.3,1-0.5,1.5c-2.5,5.4-5.7,10.6-7.1,16.5c-1.5,6.2-0.9,12.8,1.5,18.6&#10;&#9;&#9;&#9;&#9;&#9;c3.8,9.4,11.3,14,19.3,18.3c2.2,2.8,3.8,6.1,2.6,9.6c-1.5,4.2-5.9,7.4-8.7,10.7c-3.4,3.9-6.4,8.2-7.6,13.4&#10;&#9;&#9;&#9;&#9;&#9;c-2.4,10.7,2.2,22.3,10.4,29.3c10.2,8.7,24.6,9.9,37.2,6.7c12-3.1,22.3-10.4,32-18c0.6-0.2,1.2-0.5,1.8-0.9&#10;&#9;&#9;&#9;&#9;&#9;c18.8-13.3,28.3-37.6,22.6-60.2c-1.4-5.4-6.4-12.3-5.1-17.9c0.6-2.7,2.3-5.1,3.1-7.8c0.9-3.2,1-6.8,0-10&#10;&#9;&#9;&#9;&#9;&#9;c-1.8-5.8-6.7-10.4-12-13.2c-0.9-0.5-1.8-0.9-2.8-1.3c-0.8-4.3-2.5-8.4-5.1-12.1c-3.4-4.8-8.1-8.6-11.9-13.1&#10;&#9;&#9;&#9;&#9;&#9;c-2.8-3.4-5-7.1-6.4-11.2c0-0.4,0-0.8,0.1-1.2C1451.5,659.6,1453.9,645.5,1449.9,631.5z M1376.5,681.6&#10;&#9;&#9;&#9;&#9;&#9;c-7.2-2.5-13.3-6-17.3-12.8c-2.5-4.2-4.1-8.9-5.4-13.6c4.5,2.7,7,7.2,10.1,11.3c3.5,4.7,7.5,8.2,12.7,11&#10;&#9;&#9;&#9;&#9;&#9;c4.6,2.5,10.3,4.5,13.2,9.2c0.1,0.2,0.2,0.3,0.3,0.5C1385.9,684.8,1381,683.2,1376.5,681.6z M1383.4,750.7&#10;&#9;&#9;&#9;&#9;&#9;c-2.1-6-2.3-12.5-0.3-18.5c-1.1,7.3-0.8,14.6,2.8,21.5c2,3.9,5.1,7.2,8.1,10.4C1389.5,760.8,1385.6,756.8,1383.4,750.7z&#10;&#9;&#9;&#9;&#9;&#9; M1460.9,694c4.7,4.8,8.2,10.2,9.9,16c-4.1-1.5-8.2-2.9-11.4-5.7c-6.6-5.8-8.4-14.8-8.7-23.5&#10;&#9;&#9;&#9;&#9;&#9;C1453.3,685.6,1456.8,689.8,1460.9,694z" style="fill: rgb(80, 57, 101);"/>
				<path class="st5" d="M1324.7,1404.8c1.5,1.7,3.8,2.8,6.3,3.1c16.1,2.1,32.2,1.5,48.1-1.5c1.7-0.3,3.1-1.3,4.1-2.6&#10;&#9;&#9;&#9;&#9;&#9;c-1.4-2.2-2.8-4.3-4.2-6.3c-1.5-2.2-3-4.4-4.3-6.7c-14.4,2.6-29.1,2.8-43.5,0.9c0.1,0.2,0.1,0.4,0.1,0.5&#10;&#9;&#9;&#9;&#9;&#9;C1332.9,1398.3,1330.1,1402.2,1324.7,1404.8z" style="fill: rgb(80, 57, 101);"/>
				<path class="st5" d="M1282.6,1387.4c1.3-0.2,2.5-0.5,3.5-1c-2.5-4.9-5.3-9.8-7.6-14.7c-14.4,1.2-28.6-1.2-41.6-7.8&#10;&#9;&#9;&#9;&#9;&#9;c-1.1,3.5-2,5.7-2.9,6.5c0,0-1.5,3.2-4.3,8C1246.1,1386.4,1264.5,1389.8,1282.6,1387.4z" style="fill: rgb(80, 57, 101);"/>
			</g><linearGradient id="SVGID_12_" gradientUnits="userSpaceOnUse" x1="1006.9531" y1="1052.8226" x2="1004.4653" y2="970.2399">
				<stop offset="0" style="stop-color:#F3F2FA"/>
				<stop offset="1" style="stop-color:#DBDAE5"/>
			</linearGradient><path d="M 964.400024 973.099976 H 1058.900024 V 1441.499969 H 964.400024 V 973.099976 Z" class="st17" style="fill: url('#SVGID_12_');" transform="matrix(1, 0, 0, 1, 0, 0)"/><linearGradient id="SVGID_13_" gradientUnits="userSpaceOnUse" x1="504.6423" y1="1213.63" x2="509.2346" y2="1163.6709">
					<stop offset="0" style="stop-color:#F3F2FA"/>
					<stop offset="1" style="stop-color:#DBDAE5"/>
				</linearGradient><path d="M 489.1000061035156 1441.5 L 522.7999877929688 1137.5 L 506.20001220703125 1137.5 L 472.6000061035156 1441.5 Z" class="st18" style="fill: url('#SVGID_13_');" transform="matrix(1, 0, 0, 1, 0, 0)"/><linearGradient id="SVGID_14_" gradientUnits="userSpaceOnUse" x1="612.9478" y1="1202.1802" x2="607.9116" y2="1152.2639">
					<stop offset="0" style="stop-color:#F3F2FA"/>
					<stop offset="1" style="stop-color:#DBDAE5"/>
				</linearGradient><path d="M 613.2000122070312 1137.5 L 596.7000122070312 1137.5 L 630.2999877929688 1441.5 L 646.7999877929688 1441.5 Z" class="st19" style="fill: url('#SVGID_14_');" transform="matrix(1, 0, 0, 1, 0, 0)"/><path class="st4" d="M458.8,1100.8v11.1c0,24.5,49.2,44.4,109.8,44.4c60.7,0,109.8-19.9,109.8-44.4s-49.2-44.4-109.8-44.4&#10;&#9;&#9;&#9;&#9;&#9;c-47.7,0-88.3,12.3-103.4,29.4C461.6,1097.6,458.8,1100.8,458.8,1100.8z" style="fill: rgb(61, 42, 81);" transform="matrix(1, 0, 0, 1, 0, 0)"/><path d="M 678.399979 1100.800049 A 109.800003 44.400002 0 0 1 568.599976 1145.20005 A 109.800003 44.400002 0 0 1 458.799973 1100.800049 A 109.800003 44.400002 0 0 1 568.599976 1056.400047 A 109.800003 44.400002 0 0 1 678.399979 1100.800049 Z" class="st5" style="fill: rgb(80, 57, 101);" transform="matrix(1, 0, 0, 1, 0, 0)"/><path d="M 501 1254.099976 H 621.800003 V 1271.699976 H 501 V 1254.099976 Z" class="st6" style="fill: rgb(243, 242, 250);" transform="matrix(1, 0, 0, 1, 0, 0)"/><linearGradient id="SVGID_15_" gradientUnits="userSpaceOnUse" x1="686.0031" y1="1443.3809" x2="685.2787" y2="1332.9708">
					<stop offset="0" style="stop-color:#F9948A"/>
					<stop offset="1" style="stop-color:#EA726C"/>
				</linearGradient><path class="st20" d="M716.3,1295.3l-62.3-8.3c-4.5,21.4-8.9,44.9-12.9,70.5c-2.2,14.4-7.6,28.2-16,40.1&#10;&#9;&#9;&#9;&#9;&#9;c-7.7,10.9-15.6,25.6-13,36.8c4.8,20.4,123.9,12.3,140.7,10c16.8-2.4,3.6-23.4-22.2-29.4c-25.8-6-62.6-4-57.8-22.6&#10;&#9;&#9;&#9;&#9;&#9;C674.7,1384.8,694.1,1343.3,716.3,1295.3z" style="fill: url('#SVGID_15_');" transform="matrix(1, 0, 0, 1, 0, 0)"/><linearGradient id="SVGID_16_" gradientUnits="userSpaceOnUse" x1="928.4269" y1="1398.8555" x2="874.3482" y2="1314.5653">
					<stop offset="0" style="stop-color:#F9948A"/>
					<stop offset="1" style="stop-color:#EA726C"/>
				</linearGradient><path class="st21" d="M898.1,1437.3c48.7,3.6,119.6,7.2,122.6,0c3-7.2-14.4-19.8-41.5-22.8c-27-3-52.9-38.5-52.9-38.5&#10;&#9;&#9;&#9;&#9;&#9;c-6.3-3.8-26.2-60.2-46.6-121.9l-42.7,29.4c21.2,36.6,41.2,69.5,46,79.9C893.9,1386.8,849.4,1433.7,898.1,1437.3z" style="fill: url('#SVGID_16_');" transform="matrix(1, 0, 0, 1, 0, 0)"/><linearGradient id="SVGID_17_" gradientUnits="userSpaceOnUse" x1="619.8715" y1="774.6365" x2="619.5795" y2="730.1233">
					<stop offset="0" style="stop-color:#F9948A"/>
					<stop offset="1" style="stop-color:#EA726C"/>
				</linearGradient><path class="st22" d="M590.5,747c-2.4,0.7-6.2,1.5-10.9,2.4l39.6,35.4l40.8-19.9c-3.2-0.9-6.5-1.8-10-2.9&#10;&#9;&#9;&#9;&#9;&#9;c-23.4-7.2-8.8-41.6-8.8-41.6l-15.2-14.9l-26.6-7C599.3,698.5,604.3,742.8,590.5,747z" style="fill: url('#SVGID_17_');" transform="matrix(1, 0, 0, 1, 0, 0)"/><linearGradient id="SVGID_18_" gradientUnits="userSpaceOnUse" x1="789.0136" y1="750.451" x2="767.3217" y2="836.0723">
					<stop offset="0" style="stop-color:#F9948A"/>
					<stop offset="1" style="stop-color:#EA726C"/>
				</linearGradient><path class="st23" d="M751.5,832.6l40,20.9c4.6-44.5,4.4-87.9,4.4-87.9c16.8-8.4,32.4-48.1,37.9-55.9c5.4-7.8,10.2-37.3,0-41.5&#10;&#9;&#9;&#9;&#9;&#9;c-10.2-4.2-48.7,48.1-49.3,49.9c-0.6,1.8-9-34.2-13.6-33.6c-4.6,0.6,2.8,13.2-0.2,33c-3,19.8,1.2,40.3,0,44.5&#10;&#9;&#9;&#9;&#9;&#9;C770,764.4,760,801.3,751.5,832.6z" style="fill: url('#SVGID_18_');" transform="matrix(1, 0, 0, 1, 0, 0)"/><linearGradient id="SVGID_19_" gradientUnits="userSpaceOnUse" x1="812.4168" y1="1105.9053" x2="635.288" y2="1177.5121">
					<stop offset="0" style="stop-color:#BEB2D6"/>
					<stop offset="1" style="stop-color:#8877AF"/>
				</linearGradient><path class="st24" d="M513.4,935.8c0.8,9.2,1.5,15.1,2,16c2.4,4.2-43.2,65.3-36.2,105.4c8.1,46.5,7.4,74.8,214.7,88.7&#10;&#9;&#9;&#9;&#9;&#9;c0,0-31.9,78.1-52.7,211.5c-0.2,1-0.3,2-0.5,2.9c9.8,5,24.1,11.9,38.2,16.8c18.8-43,75.2-160.2,97.5-217.6&#10;&#9;&#9;&#9;&#9;&#9;c1.2,2.2,2,4.2,2.3,6.1c3.3,21.7,37.7,82.1,66.3,131.1c0.7,1.9,1.5,3.7,2.2,5.6c3.4,9.1,6.2,18.4,8.4,27.8&#10;&#9;&#9;&#9;&#9;&#9;c1.9,8.1,2.7,17,8.1,23.7c6.5,8.2,16.2,7.5,25.5,6.3c5.2-0.7,10.3-1.3,15.5-2c5-0.7,9.9-1.7,13-6c6.1-8.5-0.7-17.7-5.8-24.7&#10;&#9;&#9;&#9;&#9;&#9;c-4.9-6.6-9.6-13.5-14-20.5c-28.5-81.8-67-208.1-69.9-217.1c-4.2-13.2-119.6-66.1-153.2-79.3c-21.5-8.4-28.5-38.7-25.8-62.7&#10;&#9;&#9;&#9;&#9;&#9;L513.4,935.8z" style="fill: url('#SVGID_19_');" transform="matrix(1, 0, 0, 1, 0, 0)"/><linearGradient id="SVGID_20_" gradientUnits="userSpaceOnUse" x1="632.6705" y1="1122.5693" x2="506.6086" y2="1262.1189">
					<stop offset="0" style="stop-color:#BEB2D6"/>
					<stop offset="1" style="stop-color:#8877AF"/>
				</linearGradient><path class="st25" d="M513.4,935.8c0.8,9.2,1.5,15.1,2,16c2.4,4.2-43.2,65.3-36.2,105.4c8.1,46.5,7.4,74.8,214.7,88.7&#10;&#9;&#9;&#9;&#9;&#9;c0,0-22.1,54.2-41.5,149.3c-3,11.5-7.3,22.7-12.5,33.3c-3.6,7.3-8.6,14.4-9.9,22.6c-1.2,8.1,2,15.8,8,21.2&#10;&#9;&#9;&#9;&#9;&#9;c6.1,5.3,13.8,7.8,21.5,9.8c7,1.8,14.8,3.4,21.9,1.2c7.7-2.4,12.4-8.7,14.9-16.1c2.8-8.3,4.2-17.3,5.8-25.9&#10;&#9;&#9;&#9;&#9;&#9;c1.4-7.6,2.6-15.2,3.6-22.9c23.7-51.2,54-116.5,69.6-156.1c0,0,12.1-39.5,13-61.4c0.9-21.9-130.4-60.1-163.7-73.3&#10;&#9;&#9;&#9;&#9;&#9;c-27-10.7-10.4-68.1-9.9-88.1L513.4,935.8z" style="fill: url('#SVGID_20_');" transform="matrix(1, 0, 0, 1, 0, 0)"/><path class="st5" d="M669.4,713.4c0.2-7.6-4.9-14.5-12.7-16.2c-9.7-2.1-18.3,3.7-24,11c-11.5,14.6-19.8,33.6-17.7,52.6&#10;&#9;&#9;&#9;&#9;&#9;c1.9,17.6,12.2,33.4,29.4,39.2c15.4,5.2,37.7-0.9,41.1-19.1c0.4-2.1,0.5-4.2,0.4-6.3c1.9-8.5,1.5-17.3-1.3-25.6&#10;&#9;&#9;&#9;&#9;&#9;c-3.2-9.6-11-16.6-15.2-25.6c0-1.9,0.2-3.8,0.5-5.6C670,716.2,669.9,714.7,669.4,713.4z M680.4,745.9c2.9,6.4,4.1,13.4,3.8,20.3&#10;&#9;&#9;&#9;&#9;&#9;c-1.9-5.8-5-11.2-8.1-16.6c-3.6-6.4-5.9-13.3-6.6-20.5C673.1,734.7,677.7,739.8,680.4,745.9z" style="fill: rgb(80, 57, 101);" transform="matrix(1, 0, 0, 1, 0, 0)"/><path class="st5" d="M708.1,634.4c3.6-16.6-1.5-34.1-13.9-45.7c-6.3-5.9-15.9,3.6-9.6,9.6c8.9,8.3,13,20.6,10.4,32.6&#10;&#9;&#9;&#9;&#9;&#9;C693.2,639.2,706.3,642.9,708.1,634.4z" style="fill: rgb(80, 57, 101);" transform="matrix(1, 0, 0, 1, 0, 0)"/><linearGradient id="SVGID_21_" gradientUnits="userSpaceOnUse" x1="669.5017" y1="696.7009" x2="642.396" y2="652.6168">
					<stop offset="0" style="stop-color:#F9948A"/>
					<stop offset="1" style="stop-color:#EA726C"/>
				</linearGradient><path class="st26" d="M661.9,729.8c32.6,2,41.2-67.9,34.2-113.5c-2.6-17.1-15.1-25.5-29.7-29.3c-33.9-8.8-68.9,9.2-83,41.2&#10;&#9;&#9;&#9;&#9;&#9;c-5.6,12.8-8.9,27.4-5.5,41.9C587.7,710.9,629.3,727.9,661.9,729.8z" style="fill: url('#SVGID_21_');" transform="matrix(1, 0, 0, 1, 0, 0)"/><linearGradient id="SVGID_22_" gradientUnits="userSpaceOnUse" x1="644.7724" y1="857.1517" x2="580.8666" y2="939.0222">
					<stop offset="0" style="stop-color:#F3F2FA"/>
					<stop offset="1" style="stop-color:#DBDAE5"/>
				</linearGradient><path class="st27" d="M511.2,792.6c-5.2,35.9,1.3,146.5,3.9,158.3c20.4,0.8,84,2.8,133.7-2.8c1.5-13.5,6.2-25,13.2-29.4&#10;&#9;&#9;&#9;&#9;&#9;c19.2-12,16.2-67.3,16.2-67.3s37.9,99.7,78.1,97.3c14.6-0.9,23.8-25.1,29.6-55.7c9.4-8.7,14.8-22.8,16.2-34.6&#10;&#9;&#9;&#9;&#9;&#9;c0.8-7.2,1.4-16.9-4.7-22.1c-6.1-5.3-15-1.9-21.5-6.3c-6-4-7.2-12.3-13.5-16c-6.7-4-14.7-0.3-18.1,6.3&#10;&#9;&#9;&#9;&#9;&#9;c-2.1,4.1-2.2,8.8-2.2,13.3c-0.1,5.4-0.2,10.9-0.3,16.3c-0.1,3.9,0.7,12.4-1,18.3c-1.8,0.8-3.2,2.6-3.5,4.5&#10;&#9;&#9;&#9;&#9;&#9;c-6.6-12.2-26.7-50.2-35.7-74.2c-6.1-16.1-14.2-23.4-24.3-28c2-1.4,3.4-3.8,3.4-6.2c0-4.2-3.3-6.9-7.2-7.2&#10;&#9;&#9;&#9;&#9;&#9;c-4.6-0.4-8.9,1.4-12.5,4.1c-3,2.3-6.3,6.5-10,7.7c-1.8,0.6-3.7-0.2-5.5-0.7c-3-0.9-6-1.7-9.1-1.7c-5.9,0-11.3,3.2-17.1,3.2&#10;&#9;&#9;&#9;&#9;&#9;c-4.7-0.1-8.3-5.5-12.2-7.7c-2.6-1.4-5.3-2.1-8.3-2.5c-2.4-0.3-5.4-0.2-7.7-1.3c-3.8-1.9-5.8-7.6-8.3-10.8&#10;&#9;&#9;&#9;&#9;&#9;c-3.8-4.8-8.9-8.2-15.2-8.1c-7.6,0.1-9,9.9-4,13.3C541.6,758.1,514.7,768.3,511.2,792.6z" style="fill: url('#SVGID_22_');" transform="matrix(1, 0, 0, 1, 0, 0)"/><linearGradient id="SVGID_23_" gradientUnits="userSpaceOnUse" x1="684.8936" y1="933.606" x2="593.8051" y2="934.1763">
					<stop offset="0" style="stop-color:#F9948A"/>
					<stop offset="1" style="stop-color:#EA726C"/>
				</linearGradient><path class="st28" d="M782.8,945.7c-7.5-9-52.5-8-78.8-16.6c-14.6-4.8-57.6-12.8-93-18.9l-18.4,48.1c49.1-1.2,104-6.2,108.5-7.5&#10;&#9;&#9;&#9;&#9;&#9;C708.8,948.2,790.3,954.7,782.8,945.7z" style="fill: url('#SVGID_23_');" transform="matrix(1, 0, 0, 1, 0, 0)"/><path class="st6" d="M547,757.7c-14.1,4.7-25.3,14.1-29.8,20c-2.1,2.7-3.6,6.1-4.5,9.3c-8.9,32.4-6.7,151.3,2.4,163.9&#10;&#9;&#9;&#9;&#9;&#9;c5.6,7.7,47.4,8.4,90.1,6.9c2.1,1.5,5.2,1.9,7.2,0.3c4.3-3.3,6.4-7.5,5.6-13c-0.6-4.7-3.5-8.8-2.6-13.7&#10;&#9;&#9;&#9;&#9;&#9;c0.9-4.5,4.6-7.1,6.9-10.9c2.7-4.4,3.1-9.6,0.1-14c-5.8-8.5-20.1-5.9-28.8-6c-11.4,0-22.8,0-34.3-0.1&#10;&#9;&#9;&#9;&#9;&#9;C572.3,799.6,547,757.7,547,757.7z" style="fill: rgb(243, 242, 250);" transform="matrix(1, 0, 0, 1, 0, 0)"/><path class="st5" d="M698.7,595.9c-8.8-24.4-41.1-33.2-64.5-31c-25.6,2.4-48.7,17-61.7,39.3c-11.4,19.7-10.9,42.4-15.4,63.9&#10;&#9;&#9;&#9;&#9;&#9;c-4.4,11.6-12.3,21.5-19.5,31.7c-8.1,11.4-14.8,23.4-16.6,37.5c-1.9,14.6,2.3,29.8,11.4,40.7c4.8,8.1,11.8,15,20.2,19.2&#10;&#9;&#9;&#9;&#9;&#9;c13.4,6.7,28.5,6.9,42.2,1.5c3.5-0.6,6.8-1.8,9.3-3.8c2.5-1.1,3.8-3.3,4-5.5c0.4-1.1,0.7-2.3,0.8-3.6c0.4-3.6-0.4-7.1-0.8-10.6&#10;&#9;&#9;&#9;&#9;&#9;c-0.5-4.5-0.8-9-0.8-13.6c0-5.7,0.5-11.3,1.4-16.9c0,0,0,0,0,0c1.6-3.8,3.2-7.5,4.9-11.3c4.3-4.9,8.5-9.9,11.1-15.6&#10;&#9;&#9;&#9;&#9;&#9;c6.4-14.2,6-29.9,4.9-45.1c0.9-4,2.2-8,4.1-11.7c3.9-7.6,10.3-12.5,17.4-16.5c6.7-0.5,13.5-0.5,19.9-2.8&#10;&#9;&#9;&#9;&#9;&#9;c13.4-4.8,23.4-17.1,25.5-31.1c0.1-0.4,0-0.7-0.2-0.9c1.2-3,2-6.2,2.4-9.6C699.3,598.7,699.3,597.4,698.7,595.9z M551.9,685.5&#10;&#9;&#9;&#9;&#9;&#9;c-10.7,25.3-32.1,49.3-25,78.7c-4.6-11.1-4.6-24-1.4-35.5c5-17.8,18.3-31.3,27.7-46.7C552.8,683.1,552.4,684.3,551.9,685.5z&#10;&#9;&#9;&#9;&#9;&#9; M619.7,721.6c-0.8,1.4-1.7,2.7-2.7,3.9c3.2-7.7,6.1-15.4,8-23.5c1.3-5.6,2-11.5,2.7-17.4C627.9,697.5,626.5,710.4,619.7,721.6z&#10;&#9;&#9;&#9;&#9;&#9; M682.8,631.3c-7,6.6-15.5,9.3-24.9,10c-0.3,0-0.5,0-0.8,0.1c3.9-1.9,7.8-3.6,11.5-5.5c9-4.5,17.6-10.3,23.3-18.2&#10;&#9;&#9;&#9;&#9;&#9;C690,622.8,686.9,627.4,682.8,631.3z" style="fill: rgb(80, 57, 101);" transform="matrix(0.9999999999999999, 0, 0, 0.9999999999999999, 3.153014024219601, 9.459042072659486)"/><path class="st5" d="M752.8,1444.3c16.8-2.4,3.6-23.4-22.2-29.4c-2.7-0.6-5.6-1.2-8.6-1.7c-1.1,2.4-1.9,4.7-2.3,6.7&#10;&#9;&#9;&#9;&#9;&#9;c-2.4,10.8-16.8,9.6-52.9,4.8c-26.2-3.5-38.7-17.1-43.6-24.3c-7,10.5-13.5,23.7-11.1,34C616.9,1454.7,736,1446.6,752.8,1444.3z" style="fill: rgb(80, 57, 101);" transform="matrix(1, 0, 0, 1, 0, 0)"/><path class="st5" d="M1020.7,1437.3c2.7-6.6-11.6-17.7-34.8-21.9c-6.8,3.2-16.6,5.8-30.1,5c-23.8-1.3-59.2-17.4-75.7-25.5&#10;&#9;&#9;&#9;&#9;&#9;c-6.2,20.2-13,40,18,42.3C946.8,1440.9,1017.6,1444.5,1020.7,1437.3z" style="fill: rgb(80, 57, 101);" transform="matrix(1, 0, 0, 1, 0, 0)"/><linearGradient id="SVGID_24_" gradientUnits="userSpaceOnUse" x1="1001.6107" y1="969.7849" x2="1001.6108" y2="921.8896">
				<stop offset="0" style="stop-color:#F3F2FA"/>
				<stop offset="1" style="stop-color:#DBDAE5"/>
			</linearGradient><path class="st29" d="M1389,973.1c6.3,0,11.4-5.1,11.4-11.4s-5.1-11.4-11.4-11.4H614.2c-6.3,0-11.4,5.1-11.4,11.4&#10;&#9;&#9;&#9;&#9;s5.1,11.4,11.4,11.4H1389z" style="fill: url('#SVGID_24_');" transform="matrix(1, 0, 0, 1, 0, 0)"/><g transform="matrix(1, 0, 0, 1, 0, 0)">
				<path class="st30" d="M1001,522.1c12.5,32.8,60.3,57.3,117.3,57.3c5.5,0,11-0.2,16.3-0.7l88.3,39.3l-35-52.4&#10;&#9;&#9;&#9;&#9;&#9;c30.7-13.5,50.8-35.7,50.8-60.7c0-41.1-53.9-74.5-120.5-74.5c-22.3,0-43.3,3.8-61.2,10.3c0.6,3.2,0.8,6.5,0.8,9.8&#10;&#9;&#9;&#9;&#9;&#9;C1057.9,479.7,1035.6,505.6,1001,522.1z" style="fill: rgb(221, 214, 233);"/>
				<path class="st31" d="M1057,440.8c-7.9-45.3-70-80.6-145.4-80.6c-80.8,0-146.2,40.5-146.2,90.4c0,30.4,24.3,57.3,61.6,73.7&#10;&#9;&#9;&#9;&#9;&#9;l-42.4,63.6l100.5-48.4c8.6,1,17.5,1.5,26.5,1.5c33.6,0,64.6-7,89.3-18.8c-2.1-5.5-3.2-11.3-3.2-17.2&#10;&#9;&#9;&#9;&#9;&#9;C997.7,477.7,1021.5,453.8,1057,440.8z" style="fill: rgb(245, 189, 186);"/>
				<path class="st32" d="M1057.9,450.6c0-3.3-0.3-6.6-0.8-9.8c-35.5,13-59.3,36.8-59.3,64.1c0,5.9,1.1,11.7,3.2,17.2&#10;&#9;&#9;&#9;&#9;&#9;C1035.6,505.6,1057.9,479.7,1057.9,450.6z" style="fill: rgb(227, 167, 174);"/>
			</g><path d="M 869.1 450.600006 A 10.6 10.6 0 0 1 858.5 461.200006 A 10.6 10.6 0 0 1 847.9 450.600006 A 10.6 10.6 0 0 1 858.5 440.000006 A 10.6 10.6 0 0 1 869.1 450.600006 Z" class="st6" style="fill: rgb(243, 242, 250);" transform="matrix(1, 0, 0, 1, 0, 0)"/><path d="M 922.199976 450.600006 A 10.6 10.6 0 0 1 911.599976 461.200006 A 10.6 10.6 0 0 1 900.999975 450.600006 A 10.6 10.6 0 0 1 911.599976 440.000006 A 10.6 10.6 0 0 1 922.199976 450.600006 Z" class="st6" style="fill: rgb(243, 242, 250);" transform="matrix(1, 0, 0, 1, 0, 0)"/><path d="M 975.399988 450.600006 A 10.6 10.6 0 0 1 964.799988 461.200006 A 10.6 10.6 0 0 1 954.199987 450.600006 A 10.6 10.6 0 0 1 964.799988 440.000006 A 10.6 10.6 0 0 1 975.399988 450.600006 Z" class="st6" style="fill: rgb(243, 242, 250);" transform="matrix(1, 0, 0, 1, 0, 0)"/><path d="M 1083.799952 505 A 10.6 10.6 0 0 1 1073.199951 515.6 A 10.6 10.6 0 0 1 1062.599951 505 A 10.6 10.6 0 0 1 1073.199951 494.4 A 10.6 10.6 0 0 1 1083.799952 505 Z" class="st6" style="fill: rgb(243, 242, 250);" transform="matrix(1, 0, 0, 1, 0, 0)"/><path d="M 1136.900049 505 A 10.6 10.6 0 0 1 1126.300049 515.6 A 10.6 10.6 0 0 1 1115.700048 505 A 10.6 10.6 0 0 1 1126.300049 494.4 A 10.6 10.6 0 0 1 1136.900049 505 Z" class="st6" style="fill: rgb(243, 242, 250);" transform="matrix(1, 0, 0, 1, 0, 0)"/><path class="st6" d="M1190,505c0-5.9-4.8-10.6-10.6-10.6c-5.9,0-10.6,4.8-10.6,10.6c0,5.9,4.8,10.6,10.6,10.6&#10;&#9;&#9;&#9;&#9;&#9;C1185.3,515.6,1190,510.8,1190,505z" style="fill: rgb(243, 242, 250);" transform="matrix(1, 0, 0, 1, 0, 0)"/><path class="st16" d="M1082,950.3c2.9,0,5.3-2.4,5.3-5.3v-19.2c0-2.9-2.4-5.3-5.3-5.3H877.9c-2.9,0-5.3,2.4-5.3,5.3V945&#10;&#9;&#9;&#9;c0,2.9,2.4,5.3,5.3,5.3H1082z" style="fill: rgb(190, 178, 214);" transform="matrix(1, 0, 0, 1, 0, 0)"/><path class="st5" d="M1094,920.5c2.9,0,5.3-2.4,5.3-5.3V896c0-2.9-2.4-5.3-5.3-5.3H889.9c-2.9,0-5.3,2.4-5.3,5.3v19.2&#10;&#9;&#9;&#9;c0,2.9,2.4,5.3,5.3,5.3H1094z" style="fill: rgb(80, 57, 101);" transform="matrix(1, 0, 0, 1, 0, 0)"/><path class="st16" d="M1089.5,890.7c2.9,0,5.3-2.4,5.3-5.3v-19.2c0-2.9-2.4-5.3-5.3-5.3H885.4c-2.9,0-5.3,2.4-5.3,5.3v19.2&#10;&#9;&#9;&#9;c0,2.9,2.4,5.3,5.3,5.3H1089.5z" style="fill: rgb(190, 178, 214);" transform="matrix(1, 0, 0, 1, 0, 0)"/><path d="M 902.299988 920.5 H 914.299988 V 950.299999 H 902.299988 V 920.5 Z" class="st6" style="fill: rgb(243, 242, 250);" transform="matrix(1, 0, 0, 1, 0, 0)"/><path d="M 935.700012 890.700012 H 947.700012 V 920.500011 H 935.700012 V 890.700012 Z" class="st6" style="fill: rgb(243, 242, 250);" transform="matrix(1, 0, 0, 1, 0, 0)"/><path d="M 916.299988 861 H 928.299988 V 890.799999 H 916.299988 V 861 Z" class="st6" style="fill: rgb(243, 242, 250);" transform="matrix(1, 0, 0, 1, 0, 0)"/>
<path d="M 903.0009765625 1874.3995361328125" style="fill: rgb(234, 114, 108); fill-opacity: 1; stroke: rgb(0, 0, 0); stroke-opacity: 1; stroke-width: 0; paint-order: fill;"/></svg>